# xmcd CD database file
#
# Track frame offsets:
#	150
#	14572
#	19475
#	29352
#	37470
#	45797
#	54002
#	58947
#	64917
#	70345
#	78667
#	85640
#	91980
#	100255
#	111130
#	116707
#	124137
#	129157
#	139337
#	146315
#	151397
#	159850
#	170370
#
# Disc length: 2492 seconds
#
# Revision: 2
# Processed by: cddbd v1.5.2PL0 Copyright (c) Steve Scherf et al.
# Submitted via: CDex 1.70beta2
#
DISCID=3809ba17
DTITLE=魔法のスターマジカルエミ - 魔法のスターマジカルエミ Vol.1 音楽編
DYEAR=1900
DGENRE=Anime
TTITLE0=小幡洋子／不思議色ハピネス
TTITLE1=O・TE・N・BAガール
TTITLE2=めざせ！マジシャン
TTITLE3=舞とみさきワルツ
TTITLE4=そよ風のソナタ
TTITLE5=トポのテーマ
TTITLE6=チャレンジャー
TTITLE7=ストリート・ファイト
TTITLE8=ファニーファイター
TTITLE9=ララバイ
TTITLE10=センチメンタル・ドリーマー
TTITLE11=7色のカード （不思議色ハピネス・インストゥルメンタル）
TTITLE12=ロマンティック・サンライズ
TTITLE13=マジック団がやってくる
TTITLE14=マジカルサンバ
TTITLE15=ファンタスティック・プレリュード
TTITLE16=マジカラットへようこそ！
TTITLE17=ダンシング・ウィズ・エミ
TTITLE18=気分はマカロニ・ウェスタン
TTITLE19=エレガンス・レディ
TTITLE20=ミラクル・ファンタジー
TTITLE21=ルック・イントゥ・ザ・フューチャー
TTITLE22=小幡洋子／あなただけDreaming
EXTD=
EXTT0=
EXTT1=
EXTT2=
EXTT3=
EXTT4=
EXTT5=
EXTT6=
EXTT7=
EXTT8=
EXTT9=
EXTT10=
EXTT11=
EXTT12=
EXTT13=
EXTT14=
EXTT15=
EXTT16=
EXTT17=
EXTT18=
EXTT19=
EXTT20=
EXTT21=
EXTT22=
PLAYORDER=
